<?xml version="1.0" encoding="UTF-8"?>
<svg xmlns="http://www.w3.org/2000/svg" xmlns:xlink="http://www.w3.org/1999/xlink" width="128pt" height="128pt" viewBox="0 0 128 128" version="1.1">
<g id="surface20637272">
<path style=" stroke:none;fill-rule:nonzero;fill:rgb(16.078431%,71.372549%,96.470588%);fill-opacity:1;" d="M 64 0 C 28.652344 0 0 28.652344 0 64 C 0 99.347656 28.652344 128 64 128 C 99.347656 128 128 99.347656 128 64 C 128 28.652344 99.347656 0 64 0 Z M 64 0 "/>
<path style=" stroke:none;fill-rule:nonzero;fill:rgb(100%,100%,100%);fill-opacity:1;" d="M 95.839844 35.199219 L 83.851562 96.402344 C 83.851562 96.402344 83.335938 99.199219 79.867188 99.199219 C 78.027344 99.199219 77.074219 98.324219 77.074219 98.324219 L 51.109375 76.777344 L 38.40625 70.375 L 22.101562 66.039062 C 22.101562 66.039062 19.199219 65.199219 19.199219 62.800781 C 19.199219 60.800781 22.1875 59.847656 22.1875 59.847656 L 90.398438 32.75 C 90.394531 32.746094 92.480469 31.996094 94 32 C 94.933594 32 96 32.398438 96 33.601562 C 96 34.398438 95.839844 35.199219 95.839844 35.199219 Z M 95.839844 35.199219 "/>
<path style=" stroke:none;fill-rule:nonzero;fill:rgb(69.019608%,74.509804%,77.254902%);fill-opacity:1;" d="M 60.800781 84.816406 L 49.835938 95.613281 C 49.835938 95.613281 49.359375 95.980469 48.722656 95.996094 C 48.503906 96.003906 48.265625 95.96875 48.023438 95.859375 L 51.105469 76.769531 Z M 60.800781 84.816406 "/>
<path style=" stroke:none;fill-rule:nonzero;fill:rgb(81.176471%,84.705882%,86.27451%);fill-opacity:1;" d="M 82.871094 45.425781 C 82.328125 44.722656 81.332031 44.59375 80.628906 45.128906 L 38.398438 70.398438 C 38.398438 70.398438 45.140625 89.253906 46.167969 92.519531 C 47.195312 95.785156 48.023438 95.863281 48.023438 95.863281 L 51.105469 76.773438 L 82.570312 47.667969 C 83.273438 47.132812 83.40625 46.132812 82.871094 45.425781 Z M 82.871094 45.425781 "/>
</g>
</svg>
